<svg xmlns="http://www.w3.org/2000/svg" viewBox="0 0 294.93 291.58"><defs><style>.cls-1{fill:#f8971d;}</style></defs><title>postnl-brand</title><g id="Layer_2" data-name="Layer 2"><g id="Logo"><path class="cls-1" d="M66.63,4.05c34.45,0,89.8,21.87,126.64,42.18,40.5,22.33,97.56,67.93,97.61,99.38-.05,33.45-58.4,77.75-97.61,99.37-35.6,19.63-89.8,42.55-125.39,42.55-9.43,0-17.13-1.6-22.89-4.78-28.13-15.51-40.94-82-40.94-137.14,0-27.74,3.57-57.53,9.81-81.76C21.36,34.71,32.12,15.56,45,8.46c5.32-2.93,12.6-4.41,21.64-4.41m0-4C56.9,0,49,1.65,43,4.92,29.17,12.57,17.72,32.6,9.94,62.84,3.63,87.38,0,117.54,0,145.61c0,29.91,3.58,59.92,10.06,84.48,5.36,20.3,15.43,46.53,33,56.21,6.36,3.5,14.72,5.28,24.84,5.28,36.36,0,91.32-23.19,127.35-43,22.68-12.51,46.71-29.64,64.27-45.82,23.48-21.63,35.4-40.84,35.43-57.09,0-19.33-19-41.16-34.92-56.07a341,341,0,0,0-64.78-46.86C157.93,22.13,101.79,0,66.63,0ZM281.34,145.61c0-23.88-44.91-65.24-92.7-91.59C133.5,23.61,70.75,5.69,50.08,17.08,26.52,30.08,13.61,95,13.6,145.61c0,51,12.17,115.11,36.48,128.52,22,12.14,82.05-5.78,138.56-36.93C237.19,210.43,281.29,170.65,281.34,145.61Zm-62.55,24.84a.25.25,0,0,1-.24-.25V146.47c0-5.27-1.79-7.52-6-7.52a10.92,10.92,0,0,0-5.11,1.57c-1.79,1-3.2,1.9-3.69,2.2a.72.72,0,0,0-.29.53V170.2a.25.25,0,0,1-.25.25H192.64a.25.25,0,0,1-.25-.25V132a1.14,1.14,0,0,1,1.14-1.13h9.7a.25.25,0,0,1,.25.24v3a.33.33,0,0,0,.33.33.43.43,0,0,0,.19-.06l.32-.24a19.41,19.41,0,0,1,4.22-2.41,23.14,23.14,0,0,1,7.83-1.59c8.65,0,13.22,5,13.22,14.36V170.2a.25.25,0,0,1-.25.25Zm19.54,0a.25.25,0,0,1-.25-.25V111.74c0-.21,0-.28.33-.28.66,0,6.56,3.71,8.47,5.82a8.71,8.71,0,0,1,2.23,5.82v47.1a.25.25,0,0,1-.24.25ZM83.1,120.57c-.95,0-1.35-.47-1.35-1.58v-4.28a1.81,1.81,0,0,1,1.79-1.79h34a1.81,1.81,0,0,1,1.79,1.79V119c0,1.11-.4,1.58-1.35,1.58Zm30.74-12a.86.86,0,0,1-.73-.27,1,1,0,0,1,0-.93c1.13-3.51,4.94-14.18,5-14.28a1.51,1.51,0,0,0-.73-1.91l-1.92-.64a1.37,1.37,0,0,0-.38,0,.7.7,0,0,0-.67.36,33.7,33.7,0,0,0-1.86,5.07c-.1.36-.39.53-.88.53h-3.75a.68.68,0,0,1-.58-.21.73.73,0,0,1-.05-.65,62,62,0,0,1,3.34-9.29,2.24,2.24,0,0,1,2.1-1.42,3.19,3.19,0,0,1,.73.08h0c1.28.3,2.72.64,4.23,1.1,1.19.36,2.43.78,3.7,1.25,3.84,1.42,3.68,4.2,2.94,7-.46,1.7-2.71,8-4,11.7-.28.79-.52,1.46-.69,1.92a1,1,0,0,1-1.1.64Zm-15.7,0c-.84,0-.9-.92-.9-1,0-.2-.26-20.11-.3-22.81a1.41,1.41,0,0,1,.35-.93.75.75,0,0,1,.58-.24c.39,0,1.43-.06,2.66-.06s2.27,0,2.66.06a.78.78,0,0,1,.59.24,1.38,1.38,0,0,1,.34.93c0,2.7-.29,22.61-.29,22.82,0,0-.06,1-.9,1Zm-15.56,0a1,1,0,0,1-1.1-.64c-.16-.46-.4-1.13-.69-1.92-1.34-3.74-3.59-10-4-11.7-.75-2.79-.9-5.57,2.93-7,1.27-.47,2.52-.89,3.7-1.25,1.51-.46,3-.8,4.23-1.1h0a3.14,3.14,0,0,1,.73-.08,2.25,2.25,0,0,1,2.1,1.42,63.13,63.13,0,0,1,3.33,9.29.74.74,0,0,1,0,.65.72.72,0,0,1-.59.21H89.44c-.5,0-.78-.17-.89-.53a34.42,34.42,0,0,0-1.85-5.07.72.72,0,0,0-.67-.36,1.28,1.28,0,0,0-.38,0l-1.92.64A1.52,1.52,0,0,0,83,93.08c0,.1,3.85,10.77,5,14.28a1.08,1.08,0,0,1,0,.93.86.86,0,0,1-.74.27Zm18-29a1,1,0,0,1-.65-.27,25.11,25.11,0,0,1-4.33-4.35.73.73,0,0,1,0-1,24.66,24.66,0,0,1,4.59-4.54.67.67,0,0,1,.83,0,24.2,24.2,0,0,1,4.58,4.52.72.72,0,0,1,0,1,25.06,25.06,0,0,1-4.32,4.35,1.06,1.06,0,0,1-.65.27Zm20.65,71.13c0,14-9.23,20.64-20.64,20.64s-20.66-6.67-20.66-20.65c0-14.3,9.21-20.65,20.66-20.65S121.18,136.36,121.18,150.67Zm-11.71,0c0-7.54-3.84-10.85-8.93-10.85s-9,3.31-9,10.85c0,6.94,3.83,10.83,9,10.83S109.47,157.6,109.47,150.66ZM175,130.37h0a.38.38,0,0,0,.38.38H184a1.25,1.25,0,0,1,1.25,1.24v7.53h0a.39.39,0,0,1-.38.39h-9.57a.38.38,0,0,0-.38.38v14.6c0,5.6,2.12,7.26,5.66,7.26,1.67,0,4.27-1,4.65-1a.39.39,0,0,1,.39.39v7.2h0a1.25,1.25,0,0,1-.65,1.1c-1.57.85-4.23,1.43-8.15,1.43-6.85,0-13.21-3.44-13.21-14.46V131.4a8.86,8.86,0,0,1,2.27-5.91c1.85-2,7.8-5.86,8.57-5.86.33,0,.47.1.47.41ZM36.79,132a1.28,1.28,0,0,1,1.28-1.28H53.13c14.79,0,22.45,8.89,22.45,20.37S67,170.59,52.89,170.59H48.48a.39.39,0,0,0-.39.39v18.63c0,.31-.13.41-.46.41-.77,0-6.73-3.82-8.58-5.85a8.94,8.94,0,0,1-2.26-5.92Zm27.62,18.52c0-4.88-3.16-9.46-11.51-9.46H48.48a.4.4,0,0,0-.39.39v18.38a.4.4,0,0,0,.39.39h4.65C63.07,160.24,64.41,153.33,64.41,150.55Zm93.41,7.76c0,8.4-6,13-17.79,13a51.08,51.08,0,0,1-13.9-2.38,1.31,1.31,0,0,1-.87-1.23v-7.81a.47.47,0,0,1,.49-.47l.16,0c2.51.8,10.65,2.82,15,2.82,2.56,0,3.9-.38,4.75-1.23a2.67,2.67,0,0,0,.87-2c0-2.56-3.21-3.27-6.32-3.95-.39-.09-.22,0-1.27-.29-6.81-1.61-14-3.27-14-12a11.18,11.18,0,0,1,4.68-9.36c3-2.24,7.43-3.41,12.69-3.41a46.18,46.18,0,0,1,12.22,2.16,1.3,1.3,0,0,1,.93,1.24v7.8a.49.49,0,0,1-.66.43,40.7,40.7,0,0,0-13.86-2.73c-2.81,0-4.63,1.22-4.63,3.11,0,2.18,2.66,2.77,6,3.53l2.74.61c2.76.6,5.61,1.23,8,2.76C156.24,151,157.82,154.11,157.82,158.31Z"/></g></g></svg>