<svg xmlns="http://www.w3.org/2000/svg" width="100%" height="auto" viewBox="0 0 700 176">
  <path fill="#050A23" d="M83.2769953,176 C74.0750714,176 64.7199223,171.924899 55.2112676,163.774574 L53.370892,173.001311 L20.2441315,173.001311 L51.5305164,26.2961992 L85.5774648,21.6828309 L57.971831,151.087811 C62.2660622,154.163406 66.6369105,155.70118 71.084507,155.70118 C79.8263348,155.70118 87.5328305,150.626525 94.2042254,140.477064 C100.87562,130.327603 106.051625,117.410301 109.732394,101.724771 C113.413164,86.0392401 115.253521,70.2001673 115.253521,54.2070773 C115.253521,39.1366656 112.301281,28.1031368 106.396714,21.1061599 C100.492146,14.109183 92.2488792,10.6107471 81.6666667,10.6107471 C70.1642617,10.6107471 59.8505934,12.8789638 50.7253521,17.4154653 C41.6001109,21.9519668 34.430386,28.4490621 29.2159624,36.9069463 C24.0015389,45.3648304 21.3943662,55.283473 21.3943662,66.6631717 C21.3943662,72.353021 21.931137,76.3127892 23.0046948,78.542595 C24.0782526,80.7724008 24.6150235,82.0410644 24.6150235,82.3486239 C16.6400227,82.3486239 10.5438396,80.6570724 6.32629108,77.2739187 C2.10874261,73.8907651 0,68.4316672 0,60.8964613 C0,50.4394409 3.91075901,40.5207983 11.7323944,31.1402359 C19.5540297,21.7596735 30.0210612,14.2245807 43.1338028,8.53473132 C56.2465444,2.84488199 70.3942903,0 85.5774648,0 C106.588524,0 122.078197,6.2279849 132.046948,18.6841415 C142.015699,31.1402982 147,47.0562596 147,66.4325033 C147,83.9633904 144.04776,101.224904 138.143192,118.217562 C132.238625,135.21022 124.378766,149.088631 114.56338,159.853211 C104.747995,170.617791 94.319304,176 83.2769953,176 Z M588.9535,161.550425 C587.278483,163.314363 585.541534,164.832181 583.742653,166.103883 C575.353303,172.034657 566.925595,175 558.459278,175 C551.99409,175 546.798928,173.189986 542.873636,169.569903 C538.948343,165.94982 536.600899,160.673821 535.831234,153.741748 C531.367176,160.057637 526.40291,165.179592 520.938287,169.107767 C515.473664,173.035942 508.970091,175 501.427372,175 C492.653189,175 485.341479,171.996147 479.492024,165.98835 C475.158317,161.537332 472.429999,155.226185 471.307033,147.054792 C456.229057,165.685006 438.484507,175 418.073048,175 C406.682003,175 397.830986,172.034657 391.519731,166.103883 C388.460805,163.229368 386.143187,159.567809 384.566866,155.119175 C381.561265,159.992408 378.375814,163.73099 375.010495,166.334951 C367.544743,172.111679 359.809724,175 351.805206,175 C342.41529,175 335.52689,172.496789 331.139798,167.490291 C326.752707,162.483794 324.559194,156.283532 324.559194,148.88932 C324.559194,145.654353 324.944021,141.995813 325.713686,137.913592 C326.483351,133.831371 327.291488,129.864744 328.138119,126.013592 C328.984751,122.16244 329.561991,119.69774 329.869857,118.619417 C331.101322,113.227805 332.255802,107.913295 333.333333,102.675728 C334.410865,97.4381615 334.949622,93.2019579 334.949622,89.9669903 C334.949622,82.1106403 332.178869,78.1825243 326.63728,78.1825243 C322.635021,78.1825243 319.094614,80.1465823 316.015953,84.0747573 C312.937292,88.0029323 310.474401,93.1248875 308.627204,99.4407767 L292.926113,173.613592 L259.676742,173.613592 L262.232257,161.550425 C260.55724,163.314363 258.820292,164.832181 257.021411,166.103883 C248.63206,172.034657 240.204352,175 231.738035,175 C225.118915,175 219.846787,173.151475 215.921495,169.454369 C211.996202,165.757263 209.648758,160.288709 208.879093,153.048544 C203.64537,161.521078 198.142346,167.297719 192.369857,170.378641 C186.597368,173.459562 180.709518,175 174.706129,175 C167.317343,175 161.352528,172.689343 156.811503,168.067961 C152.270478,163.446579 150,156.514609 150,147.271845 C150,143.420693 150.615723,138.41427 151.847187,132.252427 L167.548279,58.0796117 L200.797649,58.0796117 L184.172964,136.642718 C183.711165,138.95341 183.480269,141.110022 183.480269,143.112621 C183.480269,149.428511 185.78923,152.586408 190.407221,152.586408 C194.717346,152.586408 198.411683,150.776394 201.490344,147.156311 C204.569005,143.536228 207.031897,138.568316 208.879093,132.252427 L224.580185,58.0796117 L257.829555,58.0796117 L241.20487,136.642718 C240.589138,138.95341 240.281276,141.41811 240.281276,144.036893 C240.281276,147.117815 241.012447,149.312938 242.474811,150.62233 C243.937175,151.931722 246.361584,152.586408 249.748111,152.586408 C254.058236,152.586408 257.791056,150.737883 260.946683,147.040777 C264.079286,143.370646 266.567148,138.486138 268.410343,132.387108 L284.151973,58.0796117 L317.401343,58.0796117 L314.861461,70.0951456 C322.558113,61.4685653 331.563061,57.1553398 341.876574,57.1553398 C349.727159,57.1553398 355.961354,59.3119525 360.579345,63.6252427 C365.197336,67.9385329 367.506297,74.485393 367.506297,83.2660194 C367.506297,87.7333557 366.96754,92.7012672 365.890008,98.1699029 C364.812477,103.638539 363.27317,110.300932 361.27204,118.157282 C360.040576,122.93271 358.924578,127.592534 357.924013,132.136893 C356.923449,136.681252 356.423174,140.26277 356.423174,142.881553 C356.423174,145.962475 357.115862,148.350153 358.501259,150.04466 C359.886657,151.739167 362.272583,152.586408 365.65911,152.586408 C370.277101,152.586408 373.971439,150.930437 376.742233,147.618447 C378.513835,145.500813 380.28542,142.643244 382.05701,139.0457 C382.054268,138.78532 382.052897,138.523485 382.052897,138.260194 C382.052897,127.631015 384.169444,115.923689 388.402603,103.137864 C392.635761,90.3520396 399.408714,79.2993993 408.721662,69.9796117 C418.034611,60.659824 429.848795,56 444.164568,56 C453.40055,56 459.981089,58.002569 463.906381,62.007767 C467.831674,66.012965 469.794291,71.0964093 469.794291,77.2582524 C469.794291,82.6498651 468.63981,86.8090469 466.330814,89.7359223 C464.021819,92.6627978 461.097135,94.1262136 457.556675,94.1262136 C454.939813,94.1262136 452.246026,93.201951 449.475231,91.3533981 C451.322427,86.2698775 452.246012,81.7255864 452.246012,77.7203883 C452.246012,74.7935129 451.707254,72.4828564 450.629723,70.7883495 C449.552192,69.0938427 447.935919,68.2466019 445.780856,68.2466019 C441.162865,68.2466019 436.544943,72.0206742 431.926952,79.568932 C427.308961,87.1171898 423.537658,96.282794 420.61293,107.066019 C417.688203,117.849245 416.225861,127.554002 416.225861,136.180583 C416.225861,143.72884 417.534272,148.850796 420.151134,151.546602 C422.767995,154.242408 427.00109,155.590291 432.850546,155.590291 C441.16293,155.590291 448.282226,153.664744 454.208648,149.813592 C459.296752,146.507203 464.810274,141.724761 470.749337,135.466157 C471.036944,124.768227 473.296943,113.568602 477.529387,101.86699 C482.070412,89.312235 488.843364,78.683215 497.848447,69.9796117 C506.853529,61.2760083 517.590198,56.9242718 530.058774,56.9242718 C536.370029,56.9242718 541.064916,58.0025782 544.143577,60.1592233 C547.222238,62.3158684 548.761545,65.1656781 548.761545,68.7087379 L548.761545,70.3262136 L551.301427,58.0796117 L584.550798,58.0796117 L567.926113,136.642718 C567.31038,138.95341 567.002519,141.41811 567.002519,144.036893 C567.002519,150.660875 570.158099,153.972816 576.469353,153.972816 C580.779479,153.972816 584.512299,151.970247 587.667926,147.965049 C590.797467,143.99296 593.283527,138.808871 595.12618,132.412629 L610.873216,58.0796117 L644.122586,58.0796117 L641.582704,70.0951456 C649.279356,61.4685653 658.284303,57.1553398 668.597817,57.1553398 C676.448402,57.1553398 682.682597,59.3119525 687.300588,63.6252427 C691.918579,67.9385329 694.22754,74.485393 694.22754,83.2660194 C694.22754,87.7333557 693.688782,92.7012672 692.611251,98.1699029 C691.53372,103.638539 689.994412,110.300932 687.993283,118.157282 C686.761819,122.93271 685.645821,127.592534 684.645256,132.136893 C683.644691,136.681252 683.144416,140.26277 683.144416,142.881553 C683.144416,145.962475 683.837105,148.350153 685.222502,150.04466 C686.607899,151.739167 688.993826,152.586408 692.380353,152.586408 C696.074746,152.586408 698.614603,152.124276 700,151.2 C699.076402,159.05635 696.267166,164.987035 691.572208,168.992233 C686.877251,172.997431 681.220296,175 674.601175,175 C666.442724,175 660.516391,172.5353 656.821998,167.605825 C653.127605,162.676351 651.280437,156.437578 651.280437,148.88932 C651.280437,145.654353 651.665263,141.995813 652.434929,137.913592 C653.204594,133.831371 654.01273,129.864744 654.859362,126.013592 C655.705994,122.16244 656.283234,119.69774 656.5911,118.619417 C657.822564,113.227805 658.977045,107.913295 660.054576,102.675728 C661.132107,97.4381615 661.670865,93.2019579 661.670865,89.9669903 C661.670865,82.1106403 658.900112,78.1825243 653.358522,78.1825243 C649.356263,78.1825243 645.815856,80.1465823 642.737196,84.0747573 C639.658535,88.0029323 637.195643,93.1248875 635.348447,99.4407767 L619.647355,173.613592 L586.397985,173.613592 L588.9535,161.550425 Z M516.435768,152.586408 C520.284094,152.586408 524.09388,150.776394 527.865239,147.156311 C531.636599,143.536228 534.214938,138.568316 535.600336,132.252427 L546.683459,80.031068 C546.683459,78.028469 545.913806,76.0644109 544.374475,74.138835 C542.835145,72.213259 540.449219,71.2504854 537.216625,71.2504854 C531.059303,71.2504854 525.517797,74.832003 520.59194,81.9951456 C515.666082,89.1582882 511.817814,97.7847392 509.047019,107.874757 C506.276225,117.964775 504.890848,126.860803 504.890848,134.563107 C504.890848,142.265411 506.006846,147.194811 508.238875,149.351456 C510.470904,151.508101 513.203174,152.586408 516.435768,152.586408 Z"/>
</svg>
