<?xml version="1.0" encoding="UTF-8"?>
<svg width="70px" height="70px" viewBox="0 0 70 70" version="1.1" xmlns="http://www.w3.org/2000/svg" xmlns:xlink="http://www.w3.org/1999/xlink">
    <!-- Generator: Sketch 54.1 (76490) - https://sketchapp.com -->
    <title>icon/arrow</title>
    <desc>Created with Sketch.</desc>
    <defs>
        <path d="M44.5920504,39.072908 C43.9715154,38.8192161 43.3144772,38.6654067 42.6455101,38.6172328 C42.2645147,38.6172328 42.022063,38.948633 41.731121,39.2317039 L33.3907846,47.351008 C33.3492215,47.392433 33.4323477,47.4959956 33.4739109,47.5443248 C34.0944459,47.7980167 34.7514841,47.9518261 35.4204512,48 C35.8014466,48 36.0438983,47.6685998 36.3348402,47.3855289 L44.6474679,39.273129 C44.6890311,39.2317039 44.6059048,39.1281414 44.5643416,39.0798122 L44.5920504,39.072908 Z M46.9680765,36.5459818 L25.1682104,36.5459818 C24.752579,36.5459818 24.3577292,36.6081193 24.0806416,36.352665 C23.6328894,35.8519342 23.2680973,35.283258 23,34.6680475 C23,34.60591 23,34.4747307 23.0761991,34.4747307 L44.4119435,34.4747307 L35.4065968,25.7271472 L35.4065968,25.7271472 L33.2660952,23.6558962 C33.224532,23.6144711 33.3076583,23.5109086 33.3492215,23.4625794 C33.9715455,23.2058078 34.6309915,23.0496515 35.302689,23 C35.6836844,23 35.926136,23.3314002 36.217078,23.6144711 L36.8543795,24.2427506 L47.6885042,34.7370892 C47.9853033,35.0272471 48.0800023,35.4657992 47.9292445,35.8519594 C47.7784866,36.2381196 47.4112954,36.4975451 46.9957852,36.5114609 L46.9680765,36.5459818 Z" id="path-1"></path>
    </defs>
    <g id="icon/arrow" stroke="none" stroke-width="1" fill="none" fill-rule="evenodd">
        <mask id="mask-2" fill="white">
            <use xlink:href="#path-1"></use>
        </mask>
        <use id="Shape" fill="#3440B6" fill-rule="nonzero" xlink:href="#path-1"></use>
        <g id="color/postnl-orange-primary" mask="url(#mask-2)" fill="#ED8C00">
            <rect id="Rectangle" x="0" y="0" width="70" height="70"></rect>
        </g>
    </g>
</svg>