<?xml version="1.0" encoding="UTF-8"?>
<svg width="70px" height="70px" viewBox="0 0 70 70" version="1.1" xmlns="http://www.w3.org/2000/svg" xmlns:xlink="http://www.w3.org/1999/xlink">
    <!-- Generator: Sketch 54.1 (76490) - https://sketchapp.com -->
    <title>icon/dashboard</title>
    <desc>Created with Sketch.</desc>
    <defs>
        <path d="M45.7766149,38.1459471 C45.5532651,37.8232901 45.1670556,37.4579286 44.6179864,37.0498624 C44.0689172,36.6417962 43.7943826,36.6370513 43.7943826,37.0356276 L43.7943826,44.7793928 L26.2055894,44.7793928 L26.2055894,33.4483997 L35.111673,25.5907531 L43.124356,32.2241972 C43.124356,32.2241972 43.124356,32.2241972 43.124356,32.2241972 L45.5532905,34.2170768 C45.8324781,34.501774 45.9581126,34.2550363 45.930194,33.4768637 C45.9022753,32.6986924 45.8883159,32.2052164 45.8883159,31.9964356 C45.8324784,31.7686781 45.748722,31.6026048 45.6370469,31.4982157 C45.525372,31.3938266 45.3857782,31.2562228 45.2182655,31.0854044 L35.7817259,23.2277578 C35.5583761,23.0759193 35.3164134,23 35.0558378,23 C34.7952628,23 34.5533001,23.0759193 34.3299496,23.2277578 L24.4467003,32.1103072 C24.2791876,32.2241859 24.1628594,32.3380646 24.0977156,32.4519434 C24.0325719,32.5658221 24,32.7081707 24,32.8789891 L24,45.8896808 C24,46.2313177 24.1163282,46.5017801 24.3489846,46.7010681 C24.5816411,46.900356 24.8375631,47 25.1167507,47 L44.8832493,47 C45.2182747,47 45.488156,46.8861213 45.6928932,46.6583638 C45.8976311,46.4306063 46,46.1743787 46,45.8896808 L46,39.2846998 C46,39.2846998 45.9906937,39.137606 45.9720812,38.8434186 C45.9534687,38.5492312 45.8883249,38.3167285 45.77665,38.1459108 L45.7766149,38.1459471 Z" id="path-1"></path>
    </defs>
    <g id="icon/dashboard" stroke="none" stroke-width="1" fill="none" fill-rule="evenodd">
        <mask id="mask-2" fill="white">
            <use xlink:href="#path-1"></use>
        </mask>
        <use id="Path" fill="#000000" fill-rule="nonzero" xlink:href="#path-1"></use>
        <g id="color/postnl-orange-primary" mask="url(#mask-2)" fill="#ED8C00">
            <rect id="Rectangle" x="0" y="0" width="70" height="70"></rect>
        </g>
    </g>
</svg>