<?xml version="1.0" encoding="UTF-8"?>
<svg width="70px" height="70px" viewBox="0 0 70 70" version="1.1" xmlns="http://www.w3.org/2000/svg" xmlns:xlink="http://www.w3.org/1999/xlink">
    <!-- Generator: Sketch 54.1 (76490) - https://sketchapp.com -->
    <title>icon/e-learning</title>
    <desc>Created with Sketch.</desc>
    <defs>
        <path d="M42,39.9380952 C42,39.8571429 41.8453039,39.8571429 41.7679558,39.8571429 C41.6132597,39.8571429 40.2983425,40.6666667 39.9116022,41.152381 C39.6022099,41.4761905 39.679558,41.9619048 39.679558,42.447619 L39.679558,44.7952381 C39.679558,47.4666667 37.5911602,49.652381 35.038674,49.652381 C32.4861878,49.652381 30.3977901,47.4666667 30.3977901,44.7952381 L30.3977901,34.9190476 C30.3977901,32.247619 32.4861878,30.0619048 35.038674,30.0619048 C37.5138122,30.0619048 39.679558,32.1666667 39.679558,35 L32.8729282,35 C32.718232,35 32.718232,35.1619048 32.718232,35.2428571 C32.718232,35.4047619 33.4917127,36.7809524 33.9558011,37.1857143 C34.2651934,37.5095238 34.7292818,37.4285714 35.1933702,37.4285714 L40.839779,37.4285714 C41.4585635,37.4285714 42,36.8619048 42,36.2142857 L42,34.9190476 C42,31.2761905 39.4475138,28.2809524 36.198895,27.7142857 L36.198895,27.0666667 C36.198895,26.3380952 36.7403315,25.6904762 37.5138122,25.6904762 C39.5248619,25.6904762 41.1491713,23.9904762 41.1491713,21.8857143 C41.1491713,21.8047619 41.1491713,21.9666667 41.1491713,18 C41.0718232,18 40.9171271,18 40.839779,18 C40.6850829,18 39.3701657,18.8095238 38.9834254,19.2952381 C38.6740331,19.6190476 38.7513812,20.5904762 38.7513812,20.5904762 C38.7513812,20.5904762 38.7513812,21.9666667 38.7513812,22.047619 C38.7513812,22.7761905 38.2099448,23.4238095 37.4364641,23.4238095 C35.4254144,23.4238095 33.801105,25.1238095 33.801105,27.2285714 L33.801105,27.8761905 C30.4751381,28.4428571 28,31.4380952 28,35.0809524 L28,44.7142857 C28,48.7619048 31.0939227,52 34.961326,52 C38.8287293,52 41.9226519,48.7619048 41.9226519,44.7142857 L42,39.9380952 Z" id="path-1"></path>
    </defs>
    <g id="icon/e-learning" stroke="none" stroke-width="1" fill="none" fill-rule="evenodd">
        <mask id="mask-2" fill="white">
            <use xlink:href="#path-1"></use>
        </mask>
        <use id="Path" fill="#ED8C00" fill-rule="nonzero" xlink:href="#path-1"></use>
        <g id="color/postnl-orange-primary" mask="url(#mask-2)" fill="#ED8C00">
            <rect id="Rectangle" x="0" y="0" width="70" height="70"></rect>
        </g>
    </g>
</svg>