<?xml version="1.0" encoding="UTF-8"?>
<svg width="70px" height="70px" viewBox="0 0 70 70" version="1.1" xmlns="http://www.w3.org/2000/svg" xmlns:xlink="http://www.w3.org/1999/xlink">
    <!-- Generator: Sketch 54.1 (76490) - https://sketchapp.com -->
    <title>icon/expand</title>
    <desc>Created with Sketch.</desc>
    <defs>
        <path d="M45.1474821,29.7733971 C45.1474821,29.7302316 45.1205037,29.7032531 45.0665469,29.6924617 C45.0125901,29.6816704 44.9748204,29.6762747 44.9532377,29.6762747 C44.8884896,29.6762747 44.6618708,29.8003759 44.2733824,30.0485773 C43.8848929,30.2967787 43.6043177,30.507211 43.431656,30.6798731 C43.3237426,30.8093691 43.2589942,30.9820313 43.2374118,31.1978595 C43.215829,31.4136877 43.2050376,31.6187241 43.2050376,31.8129687 L43.2050376,43.8237324 C43.2050376,44.4496323 42.9892099,44.9784083 42.5575555,45.4100691 C42.125901,45.8417244 41.5971228,46.0575526 40.971222,46.0575526 L26.2086128,46.0575526 C25.5827142,46.0575526 25.0485357,45.8417244 24.6060906,45.4100691 C24.1636444,44.9784138 23.9424218,44.4496345 23.9424218,43.8237324 L23.9424218,29.028716 C23.9424218,28.4028161 24.1636444,27.8740402 24.6060906,27.4423794 C25.0485368,27.0107241 25.5827109,26.7948959 26.2086128,26.7948959 L38.3812401,26.7948959 C38.5754844,26.7948959 38.7589379,26.7948959 38.9315997,26.7948959 C39.1042614,26.7948959 39.2661314,26.7301476 39.4172108,26.6006513 C39.5898725,26.4495716 39.8003044,26.168996 40.0485053,25.7589232 C40.2967062,25.3488503 40.4208072,25.1114397 40.4208072,25.0466922 C40.4208072,25.0035267 40.4154115,24.9603609 40.4046202,24.917195 C40.3938288,24.8740295 40.3668504,24.8524467 40.323685,24.8524467 L26.2086265,24.8524467 C25.0431568,24.8524467 24.0503599,25.2625184 23.2302137,26.0826629 C22.4100709,26.9028074 22,27.8848245 22,29.0287152 L22,43.8237315 C22,44.9676112 22.4100709,45.949636 23.2302137,46.7697838 C24.0503566,47.5899283 25.0431568,48 26.2086265,48 L40.9712357,48 C42.115113,48 43.0971358,47.5899283 43.917282,46.7697838 C44.7374249,45.9496393 45.1474957,44.9676222 45.1474957,43.8237315 C45.1474957,43.2625791 45.1474957,42.2158135 45.1474957,40.6834358 C45.1474957,39.1510581 45.1474957,37.5755177 45.1474957,35.9568144 C45.1474957,34.3381002 45.1474957,32.9028553 45.1474957,31.6510577 C45.1474957,30.3992601 45.1474957,29.7733558 45.1474957,29.7733558 L45.1474821,29.7733971 Z M49,21.9712241 C49,21.712231 48.9028777,21.4856121 48.7086331,21.2913675 C48.5143889,21.0971229 48.2877705,21 48.0287778,21 L43.9820168,21 C43.7877726,21 43.6043191,21 43.4316573,21 C43.2589955,21 43.1079162,21.0647482 42.9784204,21.1942446 C42.7841762,21.3453242 42.5683484,21.6258999 42.3309382,22.0359727 C42.093528,22.4460455 41.9748229,22.6834562 41.9748229,22.7482037 C41.9748229,22.7697865 41.9802186,22.8075562 41.9910099,22.8615131 C42.0018012,22.91547 42.0179882,22.9424485 42.039571,22.9424485 L45.6978458,22.9424485 L37.4100807,31.1978526 C37.4100807,31.2194354 37.4208721,31.2464138 37.4424548,31.278788 C37.4640376,31.3111622 37.4856203,31.3381406 37.507203,31.3597234 C37.5503685,31.4028889 37.8039658,31.4838246 38.2679945,31.60253 C38.7320231,31.7212353 39.0827425,31.780588 39.3201516,31.780588 C39.4928134,31.7590052 39.6438927,31.6888611 39.7733885,31.5701557 C39.9028843,31.4514503 40.0323812,31.3273491 40.161877,31.1978531 L47.0575516,24.3021645 L47.0575516,27.9604466 C47.0575516,27.9820294 47.0845301,27.9982165 47.1384869,28.0090078 C47.1924436,28.0197992 47.2302134,28.0251949 47.2517961,28.0251949 C47.3165442,28.0251949 47.5539536,27.9010936 47.9640256,27.6528922 C48.3740976,27.4046908 48.6546727,27.1942585 48.805752,27.0215964 C48.9352478,26.8921004 48.9999962,26.7410208 48.9999962,26.5683586 C48.9999962,26.3956965 48.9999962,26.2122426 48.9999962,26.017998 L49,21.9712241 Z" id="path-1"></path>
    </defs>
    <g id="icon/expand" stroke="none" stroke-width="1" fill="none" fill-rule="evenodd">
        <mask id="mask-2" fill="white">
            <use xlink:href="#path-1"></use>
        </mask>
        <use id="Shape" fill="#FFFFFF" fill-rule="nonzero" xlink:href="#path-1"></use>
        <g id="color/postnl-orange-primary" mask="url(#mask-2)" fill="#ED8C00">
            <rect id="Rectangle" x="0" y="0" width="70" height="70"></rect>
        </g>
    </g>
</svg>