<?xml version="1.0" encoding="UTF-8"?>
<svg width="70px" height="70px" viewBox="0 0 70 70" version="1.1" xmlns="http://www.w3.org/2000/svg" xmlns:xlink="http://www.w3.org/1999/xlink">
    <!-- Generator: Sketch 54.1 (76490) - https://sketchapp.com -->
    <title>icon/feedback</title>
    <desc>Created with Sketch.</desc>
    <defs>
        <path d="M46.403163,40.3257916 L46.4031635,40.3257913 C44.9311027,41.4052017 43.1514728,41.9822333 41.3268786,41.9717378 L37.5643747,41.9717378 L37.5643747,41.9717378 C37.2657316,41.9728571 36.9822239,42.1034797 36.7871116,42.3298517 L30.8579008,49.1684498 L30.8579008,42.922117 L30.8579008,42.922117 C30.8579008,42.3515954 30.3959637,41.8890962 29.8261355,41.8890962 L29.8261361,41.8890961 C28.4823238,41.9707289 27.1399353,41.7076137 25.9260635,41.1246607 C17.912687,37.2887099 20.2375979,24.0660429 29.6610536,24.0660429 L41.3543928,24.0660429 C49.9455579,24.0660429 52.9032849,35.5325745 46.403164,40.3257912 L46.403163,40.3257916 Z M41.3268781,22.0000016 L29.6335389,22.0000016 C18.1052822,22.0000016 15.0237434,38.1977686 25.0181092,42.9840986 L25.0181079,42.984098 C26.1965626,43.5505846 27.4752361,43.8782464 28.7806118,43.9482508 L28.7806118,51.9576059 L28.7806118,51.9576049 C28.77544,52.5281031 29.2331653,52.9947785 29.8029673,52.9999574 C30.1041829,53.0026946 30.3915508,52.8734991 30.5896332,52.6462855 L38.0183428,44.0377783 L41.32687,44.0377783 L41.3268699,44.0377783 C43.5965952,44.046256 45.8085554,43.3217227 47.6343946,41.9717366 C55.7922183,35.966442 51.8508752,22 41.3268699,22 L41.3268781,22.0000016 Z M33.636788,38.3217311 C33.636788,37.2060686 34.159549,36.8686151 35.1018946,36.8686151 C36.0442402,36.8686151 36.5876365,37.2060686 36.5876365,38.3217311 L36.5876365,38.4732409 C36.5876365,39.6095638 36.0236049,39.9401305 35.1018946,39.9401305 C34.1801843,39.9401305 33.636788,39.6233374 33.636788,38.4732409 L33.636788,38.3217311 Z M32.0203558,27.5094462 C35.0399887,26.3524628 38.2109471,26.5384065 39.3114967,28.5975615 C39.9030421,29.747658 40.1162736,33.0395511 36.216201,33.7075713 L36.0511186,35.8838019 L33.9875882,35.8838019 L33.7055723,32.1304928 C34.9849612,32.0478511 36.6220287,31.7517185 36.6220287,30.4363386 C36.6220287,28.6457691 33.7812351,29.2311476 32.1854382,29.9542622 L32.0203558,27.5094462 L32.0203558,27.5094462 Z" id="path-1"></path>
    </defs>
    <g id="icon/feedback" stroke="none" stroke-width="1" fill="none" fill-rule="evenodd">
        <mask id="mask-2" fill="white">
            <use xlink:href="#path-1"></use>
        </mask>
        <use id="Shape" fill="#FFFFFF" fill-rule="nonzero" xlink:href="#path-1"></use>
        <g id="color/postnl-orange-primary" mask="url(#mask-2)" fill="#ED8C00">
            <rect id="Rectangle" x="0" y="0" width="70" height="70"></rect>
        </g>
    </g>
</svg>