<?xml version="1.0" encoding="UTF-8"?>
<svg width="70px" height="70px" viewBox="0 0 70 70" version="1.1" xmlns="http://www.w3.org/2000/svg" xmlns:xlink="http://www.w3.org/1999/xlink">
    <!-- Generator: Sketch 54.1 (76490) - https://sketchapp.com -->
    <title>icon/score</title>
    <desc>Created with Sketch.</desc>
    <defs>
        <path d="M46.1649781,24.9113126 C46.2809062,27.2459884 46.2994308,32.9463152 43.9736985,35.4509858 C43.5757186,35.87903 43.127543,36.1902794 42.6243913,36.3932947 C44.1834446,32.2333158 43.9635398,28.0280865 43.9635398,24.9614549 C43.9635398,23.5134423 46.0908797,23.4400633 46.1649781,24.9113126 Z M33.2461686,45.4354244 L33.6764171,43.4902688 C33.9937254,42.053263 36.0057348,42.0495941 36.3236407,43.4902688 L36.7538892,45.4354244 L33.2461686,45.4354244 Z M40.4307214,49.1655245 L29.5693364,49.1655245 C29.5693364,47.9131892 30.3963697,47.2698998 31.2526837,47.2698998 L38.747374,47.2698998 C39.5367605,47.2698998 40.4307214,47.8447022 40.4307214,49.1655245 Z M23.8350797,24.9113126 C23.909178,23.4400633 26.036518,23.5134423 26.036518,24.9614549 C26.036518,24.9614549 25.7580515,32.0596521 27.4103254,36.4055245 C23.9784958,35.0639114 23.6480411,28.6799367 23.8350797,24.9113126 Z M41.6324294,38.4845967 C47.2639045,38.012525 48.2421224,30.5932947 47.95529,24.8177543 C47.8764111,23.2376595 46.607178,22 45.0648565,22 C43.6229264,22 42.1708376,23.0682762 42.1708376,25.2653664 L33.3071204,25.2653664 C33.2575224,25.2653664 33.2425832,25.3827728 33.2425832,25.4371956 C33.2425832,25.5619399 33.8568825,26.6173748 34.1718005,26.9267897 C34.3839369,27.1346969 35.111774,27.0998419 35.111774,27.0998419 L42.1959355,27.0998419 C42.2455335,33.0563838 40.8711285,40.5740643 35.027517,40.5740643 C29.1594052,40.5740643 27.7772318,33.0086874 27.7933661,27.0998419 L31.7928847,27.0998419 C31.8424828,27.0998419 31.8580195,26.9824354 31.8580195,26.9280127 C31.8580195,26.8032683 31.259257,25.7301002 30.9276071,25.4384186 C30.6975436,25.2354033 29.9888287,25.2653664 29.9888287,25.2653664 L27.8292201,25.2653664 C27.8292201,23.0823405 26.3860949,22 24.9352012,22 C23.3928798,22 22.1236467,23.2376595 22.0447678,24.8177543 C21.7561427,30.6269267 22.7487021,38.0473801 28.4076654,38.4864312 C29.3703465,40.0922088 30.6479455,41.3237533 32.416745,41.9621508 C31.9458619,42.6592514 31.9440692,43.0151397 31.4080513,45.4354244 L31.2526837,45.4354244 C29.3356875,45.4354244 27.7766342,47.0308065 27.7766342,48.9924723 L27.7766342,50.0827623 C27.7766342,50.589689 28.1781995,51 28.6729853,51 L41.3270725,51 C41.8218583,51 42.2234236,50.589689 42.2234236,50.0827623 L42.2234236,48.9924723 C42.2234236,47.0308065 40.6643702,45.4354244 38.747374,45.4354244 L38.5920065,45.4354244 C38.0368664,42.9283079 38.0446348,42.652525 37.5952641,41.9774381 C39.3533074,41.3549394 40.6506262,40.1344017 41.6324294,38.4845967 L41.6324294,38.4845967 Z" id="path-1"></path>
    </defs>
    <g id="icon/score" stroke="none" stroke-width="1" fill="none" fill-rule="evenodd">
        <mask id="mask-2" fill="white">
            <use xlink:href="#path-1"></use>
        </mask>
        <use id="Fill-1" fill="#000000" fill-rule="nonzero" xlink:href="#path-1"></use>
        <g id="color/postnl-orange-primary" mask="url(#mask-2)" fill="#ED8C00">
            <rect id="Rectangle" x="0" y="0" width="70" height="70"></rect>
        </g>
    </g>
</svg>