<?xml version="1.0" encoding="UTF-8"?>
<svg width="70px" height="70px" viewBox="0 0 70 70" version="1.1" xmlns="http://www.w3.org/2000/svg" xmlns:xlink="http://www.w3.org/1999/xlink">
    <!-- Generator: Sketch 54.1 (76490) - https://sketchapp.com -->
    <title>icon/search</title>
    <desc>Created with Sketch.</desc>
    <defs>
        <path d="M41.298265,37.9848082 L40.0683284,37.9848082 L39.6290659,37.5455458 C40.3904557,36.6670201 40.9858974,35.6762371 41.4154012,34.5732057 C41.8449019,33.4701744 42.0596528,32.2939249 42.0596528,31.0444671 C42.0596528,29.6583486 41.7960951,28.3503262 41.2689797,27.12039 C40.7418643,25.9099753 40.0243994,24.8508649 39.1165931,23.9430588 C38.2087868,23.0352528 37.1496761,22.3177941 35.939261,21.7906729 C34.7288459,21.2635576 33.4305789,21 32.04447,21 C30.6583512,21 29.3503284,21.2635576 28.1203918,21.7906729 C26.9099767,22.3177881 25.850866,23.0352528 24.9430597,23.9430588 C24.0352534,24.8508649 23.3177945,25.9099753 22.7906731,27.12039 C22.2635577,28.3503262 22,29.6583486 22,31.0444671 C22,32.4305855 22.2635577,33.7288521 22.7906731,34.9392569 C23.3177885,36.1496716 24.0352534,37.208782 24.9430597,38.116588 C25.850866,39.0243941 26.9099767,39.7418527 28.1203918,40.268974 C29.3503284,40.7960892 30.6583512,41.0596469 32.04447,41.0596469 C33.2939282,41.0596469 34.4701781,40.8448961 35.5732098,40.4153954 C36.6762414,39.9858948 37.6670217,39.400216 38.5455507,38.6583479 L38.9848133,39.068326 L38.9848133,40.2982623 L46.6865533,48 L49,45.6865539 L41.298265,37.9848082 Z M32.044468,37.9848082 C31.0878499,37.9848082 30.1800366,37.7993417 29.3210391,37.4284087 C28.4815562,37.0769982 27.7494507,36.5840491 27.1247216,35.9495604 C26.4999925,35.3150708 26.0021584,34.5780856 25.6312293,33.7386099 C25.2798187,32.8991272 25.1041138,32.0010839 25.1041138,31.0444691 C25.1041138,30.0878512 25.2798187,29.1800382 25.6312293,28.3210409 C26.0021624,27.4815582 26.4999935,26.749453 27.1247216,26.1247241 C27.7494507,25.4999952 28.4815532,25.0021612 29.3210391,24.6312322 C30.1800396,24.2798217 31.0878529,24.1041169 32.044468,24.1041169 C33.0010862,24.1041169 33.8991337,24.2798217 34.7386097,24.6312322 C35.5780926,25.0021652 36.315076,25.4999962 36.9495609,26.1247241 C37.5840507,26.749453 38.0770019,27.4815552 38.4284095,28.3210409 C38.7993427,29.1800412 38.9848093,30.0878542 38.9848093,31.0444691 C38.9848093,32.0010869 38.7993427,32.8991342 38.4284095,33.7386099 C38.0769989,34.5780926 37.5840497,35.3150758 36.9495609,35.9495604 C36.315071,36.5840501 35.5780856,37.0770012 34.7386097,37.4284087 C33.8991267,37.7993417 33.0010832,37.9848082 32.044468,37.9848082 Z" id="path-1"></path>
    </defs>
    <g id="icon/search" stroke="none" stroke-width="1" fill="none" fill-rule="evenodd">
        <mask id="mask-2" fill="white">
            <use xlink:href="#path-1"></use>
        </mask>
        <use id="Shape" fill="#000000" fill-rule="nonzero" xlink:href="#path-1"></use>
        <g id="color/postnl-orange-primary" mask="url(#mask-2)" fill="#ED8C00">
            <rect id="Rectangle" x="0" y="0" width="70" height="70"></rect>
        </g>
    </g>
</svg>