<?xml version="1.0" encoding="UTF-8"?>
<svg width="70px" height="70px" viewBox="0 0 70 70" version="1.1" xmlns="http://www.w3.org/2000/svg" xmlns:xlink="http://www.w3.org/1999/xlink">
    <!-- Generator: Sketch 54.1 (76490) - https://sketchapp.com -->
    <title>icon/settings</title>
    <desc>Created with Sketch.</desc>
    <defs>
        <path d="M45.6918421,34.9447368 C44.5542105,36.6089474 42.8355263,37.7307895 40.8531579,38.1026316 C38.8676316,38.4752632 36.8623684,38.0528947 35.1981579,36.9144737 C31.7623684,34.5642105 30.8789474,29.8565789 33.2284211,26.4207895 C34.4718421,24.6026316 36.4542105,23.4460526 38.5905263,23.1910526 L36.9286842,25.6210526 C36.6871053,25.9747368 36.6547368,26.4302632 36.8442105,26.8147368 L38.6552632,30.4771053 C38.8313158,30.8315789 39.1715789,31.0747368 39.5639474,31.1260526 C39.695,31.1434211 43.9715789,31.7078947 44.0971053,31.7078947 C44.4847368,31.7078947 44.8518421,31.5176316 45.0744737,31.1923684 L46.7481579,28.745 C47.2984211,30.8378947 46.9431579,33.1155263 45.6918421,34.9447368 Z M48.0255263,25.6778947 C47.5960526,24.9397368 46.5168421,24.8907895 46.025,25.6060526 L43.5294737,29.255 L40.4978947,28.8594737 L39.2742105,26.3860526 L41.7823684,22.7189474 C42.2702632,22.0068421 41.8392105,21.0128947 40.9865789,20.8802632 C37.235,20.3007895 33.4194737,21.9476316 31.2736842,25.0834211 C29.2510526,28.0415789 29.0623684,31.7126316 30.4360526,34.7631579 C21.3128947,48.1052632 20.7618421,48.9097368 20.7618421,48.9097368 C20.7247368,48.9634211 20.8384211,49.0660526 20.8968421,49.1055263 C21.0294737,49.1963158 22.6155263,49.3107895 23.1768421,49.1773684 C23.5984211,49.0771053 23.7965789,48.6689474 24.0618421,48.2797368 L31.7971053,36.9689474 C32.9228947,38.3426316 34.3328947,39.3460526 35.9663158,39.9642105 C33.0026316,44.2968421 29.9915789,48.7005263 29.8463158,48.9128947 C29.8092105,48.9673684 29.9228947,49.07 29.9805263,49.1094737 C30.1131579,49.2002632 31.7,49.3147368 32.2613158,49.1805263 C32.6828947,49.0810526 32.8802632,48.6721053 33.1463158,48.2828947 C38.5494737,40.3834211 38.4373684,40.5460526 38.4373684,40.5460526 C39.3302632,40.6376316 40.2271053,40.6305263 41.2897368,40.4307895 C43.8942105,39.9421053 46.1513158,38.4681579 47.6473684,36.2813158 C49.8002632,33.1344737 49.9478947,28.9723684 48.0255263,25.6778947 L48.0255263,25.6778947 Z" id="path-1"></path>
    </defs>
    <g id="icon/settings" stroke="none" stroke-width="1" fill="none" fill-rule="evenodd">
        <mask id="mask-2" fill="white">
            <use xlink:href="#path-1"></use>
        </mask>
        <use id="Fill-1" fill="#384388" fill-rule="nonzero" xlink:href="#path-1"></use>
        <g id="color/postnl-orange-primary" mask="url(#mask-2)" fill="#ED8C00">
            <rect id="Rectangle" x="0" y="0" width="70" height="70"></rect>
        </g>
    </g>
</svg>