<?xml version="1.0" encoding="UTF-8"?>
<svg width="70px" height="70px" viewBox="0 0 70 70" version="1.1" xmlns="http://www.w3.org/2000/svg" xmlns:xlink="http://www.w3.org/1999/xlink">
    <!-- Generator: Sketch 54.1 (76490) - https://sketchapp.com -->
    <title>icon/support</title>
    <desc>Created with Sketch.</desc>
    <defs>
        <path d="M49.5714286,40.6561514 L49.5714286,35.6632492 C49.5714286,35.0828076 49.0865238,34.6104101 48.4915238,34.6104101 L47.2440476,34.6104101 L47.2440476,40.3501577 C47.2440476,42.1277603 49.5714286,42.0717666 49.5714286,40.6561514 Z M22.9073333,40.3454259 L22.9073333,34.6600946 L21.5092857,34.6600946 C20.9134762,34.6600946 20.4285714,35.1324921 20.4285714,35.7121451 L20.4285714,40.5544164 C20.4285714,42.2452681 22.9073333,41.9684543 22.9073333,40.3454259 Z M48.4915238,32.2444795 C50.4262857,32.2444795 52,33.7783912 52,35.6632492 L52,40.6561514 C52,41.7066246 51.5142857,42.6845426 50.6675238,43.3375394 C49.8207619,43.9905363 48.7214286,44.2239748 47.6536667,43.9787066 C46.0095238,43.6009464 44.8154762,42.0749211 44.8154762,40.3501577 L44.8154762,29.8951104 C44.8340952,23.9211356 40.4610476,20.3832808 35.1060476,20.3659306 C35.0947143,20.3659306 35.083381,20.3659306 35.0728571,20.3659306 C30.391381,20.3659306 25.3569524,23.3241325 25.3359048,29.8328076 L25.3359048,40.3454259 C25.3359048,42.3769716 23.6407619,44.0496845 21.5562381,44.0741325 C21.5424762,44.0741325 21.5287143,44.0741325 21.5165714,44.0741325 C20.6147619,44.0741325 19.7566667,43.7247634 19.0944762,43.0867508 C18.3990952,42.4171924 18,41.4944795 18,40.5544164 L18,35.7121451 C18,33.8272871 19.5737143,32.294164 21.5092857,32.294164 L22.9073333,32.294164 L22.9073333,29.829653 C22.9267619,23.9432177 27.1087619,18 35.0655714,18 C35.0817619,18 35.0971429,18 35.1141429,18.0007886 C41.7117619,18.0197161 47.2667143,22.5276025 47.2440476,29.8990536 L47.2440476,32.2444795 L48.4915238,32.2444795 Z M27.8842857,45.9881703 C29.3244286,46.8864353 31.1264286,47.5189274 32.9972381,47.5189274 C33.4109048,46.8596215 34.1491905,46.4156151 35,46.4156151 C36.2992857,46.4156151 37.3524762,47.4416404 37.3524762,48.7074132 C37.3524762,49.9731861 36.2992857,51 35,51 C34.1443333,51 33.402,50.5496845 32.9915714,49.884858 C29.2993333,49.884858 27.1192857,48.3201893 24.3482857,46.5922713 C24.2908095,46.5567823 24.358,46.4164038 24.3968571,46.3572555 C24.4859048,46.2223975 25.939,45.4960568 26.5218571,45.3998423 C26.9598095,45.3264984 27.3079048,45.6293375 27.7150952,45.8824921 L27.8842857,45.9881703 Z" id="path-1"></path>
    </defs>
    <g id="icon/support" stroke="none" stroke-width="1" fill="none" fill-rule="evenodd">
        <mask id="mask-2" fill="white">
            <use xlink:href="#path-1"></use>
        </mask>
        <use id="Combined-Shape" fill="#384388" fill-rule="nonzero" xlink:href="#path-1"></use>
        <g id="color/postnl-orange-primary" mask="url(#mask-2)" fill="#ED8C00">
            <rect id="Rectangle" x="0" y="0" width="70" height="70"></rect>
        </g>
    </g>
</svg>